<svg width="27" height="26" viewBox="0 0 27 26" fill="none" xmlns="http://www.w3.org/2000/svg">
<g clip-path="url(#clip0_15_145)">
<path d="M16.6262 11.2014C15.3917 8.56231 12.9823 6.35328 9.81641 6.97885C7.15817 7.87999 4.90892 9.67291 3.46463 12.042C1.60441 14.1915 0.403107 16.8148 5.14111e-05 19.6075C-0.0469629 21.0017 0.384987 22.3709 1.22647 23.4949C2.06796 24.6189 3.27005 25.4323 4.6394 25.8044C8.30312 26.6646 11.708 24.1232 13.4801 21.2104C13.6166 20.9326 13.642 20.6147 13.5512 20.3194C13.4604 20.0242 13.26 19.7732 12.9897 19.6159C12.7195 19.4587 12.399 19.4067 12.0916 19.4703C11.7843 19.5339 11.5124 19.7084 11.3297 19.9593C10.8193 21.0033 10.0245 21.8882 9.03351 22.5162C8.04249 23.1441 6.89382 23.4906 5.71464 23.5172C4.8158 23.3899 3.99421 22.9477 3.40138 22.2722C2.80855 21.5968 2.48448 20.7337 2.48899 19.842C2.78595 17.6145 3.74125 15.5212 5.23679 13.821C6.27239 12.1292 7.71499 10.7129 9.43808 9.69617C11.8275 8.50369 13.5399 10.439 14.4757 12.433C14.6459 12.7115 14.9197 12.9141 15.2392 12.998C15.5588 13.0819 15.8991 13.0406 16.1881 12.8826C16.4646 12.7091 16.6636 12.439 16.745 12.1269C16.8263 11.8148 16.7838 11.484 16.6262 11.2014Z" fill="white"/>
<path d="M10.3938 14.7789C11.6283 17.3985 14.0376 19.627 17.1836 18.9819C19.8384 18.1048 22.0849 16.3222 23.5155 13.9578C25.387 11.8154 26.5899 9.18877 26.98 6.39243C27.0292 4.99826 26.6008 3.62817 25.7634 2.5012C24.926 1.37424 23.7279 0.555518 22.3606 0.175899C18.6969 -0.684252 15.292 1.85707 13.5199 4.7894C13.3997 5.06547 13.3863 5.37517 13.4823 5.66024C13.5783 5.9453 13.7771 6.18613 14.0412 6.33742C14.3054 6.48871 14.6168 6.54 14.9168 6.48173C15.2168 6.42347 15.4847 6.25963 15.6703 6.02099C16.1879 4.98247 16.9844 4.10233 17.9739 3.47537C18.9633 2.84841 20.1083 2.49839 21.2854 2.46308C22.1825 2.59431 23.0017 3.03762 23.5938 3.71221C24.1859 4.3868 24.5114 5.24779 24.511 6.13828C24.2096 8.36455 23.2548 10.4566 21.7632 12.1593C20.7276 13.851 19.285 15.2674 17.5619 16.2841C15.1726 17.4962 13.4403 15.5413 12.5243 13.5473C12.3476 13.2759 12.0725 13.0805 11.7546 13.0006C11.4367 12.9208 11.0997 12.9624 10.8119 13.1172C10.5316 13.2875 10.3294 13.5577 10.2478 13.8711C10.1661 14.1846 10.2113 14.517 10.3739 14.7984L10.3938 14.7789Z" fill="white"/>
</g>
<defs>
<clipPath id="clip0_15_145">
<rect width="27" height="26" fill="white"/>
</clipPath>
</defs>
</svg>
