<svg width="36" height="37" viewBox="0 0 36 37" fill="none" xmlns="http://www.w3.org/2000/svg">
<g clip-path="url(#clip0_13_43)">
<path d="M31.1105 1.38845L12.0457 18.0015L15.2366 21.6656L34.3014 5.05261L31.1105 1.38845Z" fill="white"/>
<path d="M35.3844 0.858917C35.8199 1.36291 36.0387 2.01863 35.9932 2.68325C35.9477 3.34787 35.6416 3.96759 35.1415 4.4075L31.8369 0.610325C32.3415 0.175356 32.9974 -0.0425832 33.6618 0.00398431C34.3263 0.0505519 34.9454 0.357821 35.3844 0.858917Z" fill="white"/>
<path d="M11.275 18.647L14.523 22.3763L9.58032 23.4048L11.275 18.647Z" fill="white"/>
<path d="M17.9351 1.62744L9.85727 1.67262H5.95958C4.86891 1.5876 3.77387 1.76793 2.76799 2.19816C1.92492 2.63557 1.24104 3.32756 0.813481 4.17586C0.411573 5.16586 0.241546 6.23472 0.316398 7.30061L0.237306 15.4996C0.16952 20.9016 0.0998542 26.3054 0.0283024 31.7111C-0.0587587 32.7526 0.146659 33.7976 0.621423 34.7285C1.07425 35.5151 1.75334 36.1472 2.57028 36.5424C3.33909 36.8761 4.17312 37.0325 5.01058 37.0001H23.8325C24.7232 37.0319 25.6074 36.8375 26.4027 36.435C27.1174 36.0329 27.7122 35.4478 28.1262 34.7398C28.5401 34.0318 28.7583 33.2263 28.7582 32.4061C28.8317 28.3603 28.7582 24.3089 28.7582 20.263V19.8562C28.7387 19.5886 28.6186 19.3383 28.4221 19.1556C28.2257 18.9729 27.9673 18.8713 27.6991 18.8713C27.4308 18.8713 27.1725 18.9729 26.976 19.1556C26.7796 19.3383 26.6595 19.5886 26.6399 19.8562V31.2478C26.6399 31.7224 26.6738 32.2084 26.6399 32.683C26.5822 33.2915 26.2994 33.8565 25.847 34.2673C25.3945 34.678 24.805 34.905 24.194 34.9037C22.9343 34.9037 21.669 34.9037 20.4093 34.9037H6.58659C5.37209 34.9037 3.82431 35.1467 2.86401 34.2426C2.59574 33.9699 2.38968 33.6423 2.25999 33.2824C2.1303 32.9225 2.08007 32.5387 2.11272 32.1575C2.11272 30.8918 2.14661 29.6204 2.16356 28.349L2.25958 20.7377L2.35562 13.1207L2.40646 9.31222C2.34577 8.14762 2.37599 6.98006 2.49684 5.82016C2.56595 5.46031 2.71572 5.12082 2.93488 4.82721C3.15404 4.53359 3.43689 4.29351 3.76217 4.12499C4.63209 3.67859 5.72797 3.85377 6.66568 3.84812L14.1899 3.8029H17.9464C19.3078 3.8029 19.3134 1.67263 17.9464 1.68393L17.9351 1.62744Z" fill="white"/>
</g>
<defs>
<clipPath id="clip0_13_43">
<rect width="36" height="37" fill="white"/>
</clipPath>
</defs>
</svg>
